<mxfile host="Electron" agent="Mozilla/5.0 (X11; Linux x86_64) AppleWebKit/537.36 (KHTML, like Gecko) draw.io/26.0.9 Chrome/128.0.6613.186 Electron/32.3.0 Safari/537.36" version="26.0.9">
  <diagram name="Page-1" id="wpCNmksmt81B80-uD6Up">
    <mxGraphModel dx="1419" dy="1026" grid="1" gridSize="10" guides="1" tooltips="1" connect="1" arrows="1" fold="1" page="1" pageScale="1" pageWidth="1200" pageHeight="1920" math="0" shadow="0">
      <root>
        <mxCell id="0" />
        <mxCell id="1" parent="0" />
        <mxCell id="F4_hv1toORTMQJguR9tx-147" value="" style="rounded=0;whiteSpace=wrap;html=1;fillColor=none;dashed=1;dashPattern=8 8;" vertex="1" parent="1">
          <mxGeometry x="200" y="100" width="2190" height="1240" as="geometry" />
        </mxCell>
        <mxCell id="F4_hv1toORTMQJguR9tx-37" value="" style="group" vertex="1" connectable="0" parent="1">
          <mxGeometry x="320" y="120" width="320" height="270" as="geometry" />
        </mxCell>
        <mxCell id="F4_hv1toORTMQJguR9tx-21" value="DMux8Way" style="triangle;whiteSpace=wrap;html=1;direction=west;" vertex="1" parent="F4_hv1toORTMQJguR9tx-37">
          <mxGeometry x="80" width="200" height="240" as="geometry" />
        </mxCell>
        <mxCell id="F4_hv1toORTMQJguR9tx-22" value="" style="endArrow=classic;html=1;rounded=0;entryX=1;entryY=0.5;entryDx=0;entryDy=0;" edge="1" parent="F4_hv1toORTMQJguR9tx-37" target="F4_hv1toORTMQJguR9tx-21">
          <mxGeometry width="50" height="50" relative="1" as="geometry">
            <mxPoint y="120" as="sourcePoint" />
            <mxPoint x="100" y="10" as="targetPoint" />
          </mxGeometry>
        </mxCell>
        <mxCell id="F4_hv1toORTMQJguR9tx-23" value="" style="endArrow=none;html=1;rounded=0;entryX=1;entryY=0.5;entryDx=0;entryDy=0;startFill=0;" edge="1" parent="F4_hv1toORTMQJguR9tx-37">
          <mxGeometry width="50" height="50" relative="1" as="geometry">
            <mxPoint x="280" y="20" as="sourcePoint" />
            <mxPoint x="320" y="20" as="targetPoint" />
          </mxGeometry>
        </mxCell>
        <mxCell id="F4_hv1toORTMQJguR9tx-24" value="" style="endArrow=none;html=1;rounded=0;entryX=1;entryY=0.5;entryDx=0;entryDy=0;startFill=0;" edge="1" parent="F4_hv1toORTMQJguR9tx-37">
          <mxGeometry width="50" height="50" relative="1" as="geometry">
            <mxPoint x="280" y="50" as="sourcePoint" />
            <mxPoint x="320" y="50" as="targetPoint" />
          </mxGeometry>
        </mxCell>
        <mxCell id="F4_hv1toORTMQJguR9tx-25" value="" style="endArrow=classic;html=1;rounded=0;entryX=0.5;entryY=0;entryDx=0;entryDy=0;" edge="1" parent="F4_hv1toORTMQJguR9tx-37">
          <mxGeometry width="50" height="50" relative="1" as="geometry">
            <mxPoint x="240" y="270" as="sourcePoint" />
            <mxPoint x="240" y="220" as="targetPoint" />
          </mxGeometry>
        </mxCell>
        <mxCell id="F4_hv1toORTMQJguR9tx-26" value="sel[0]" style="edgeLabel;html=1;align=center;verticalAlign=middle;resizable=0;points=[];" vertex="1" connectable="0" parent="F4_hv1toORTMQJguR9tx-25">
          <mxGeometry x="0.0274" relative="1" as="geometry">
            <mxPoint y="6" as="offset" />
          </mxGeometry>
        </mxCell>
        <mxCell id="F4_hv1toORTMQJguR9tx-27" value="" style="endArrow=none;html=1;rounded=0;entryX=1;entryY=0.5;entryDx=0;entryDy=0;startFill=0;" edge="1" parent="F4_hv1toORTMQJguR9tx-37">
          <mxGeometry width="50" height="50" relative="1" as="geometry">
            <mxPoint x="280" y="80" as="sourcePoint" />
            <mxPoint x="320" y="80" as="targetPoint" />
          </mxGeometry>
        </mxCell>
        <mxCell id="F4_hv1toORTMQJguR9tx-28" value="" style="endArrow=none;html=1;rounded=0;entryX=1;entryY=0.5;entryDx=0;entryDy=0;startFill=0;" edge="1" parent="F4_hv1toORTMQJguR9tx-37">
          <mxGeometry width="50" height="50" relative="1" as="geometry">
            <mxPoint x="280" y="110" as="sourcePoint" />
            <mxPoint x="320" y="110" as="targetPoint" />
          </mxGeometry>
        </mxCell>
        <mxCell id="F4_hv1toORTMQJguR9tx-29" value="" style="endArrow=classic;html=1;rounded=0;entryX=0.405;entryY=0.188;entryDx=0;entryDy=0;entryPerimeter=0;" edge="1" parent="F4_hv1toORTMQJguR9tx-37" target="F4_hv1toORTMQJguR9tx-21">
          <mxGeometry width="50" height="50" relative="1" as="geometry">
            <mxPoint x="200" y="270" as="sourcePoint" />
            <mxPoint x="200" y="210" as="targetPoint" />
          </mxGeometry>
        </mxCell>
        <mxCell id="F4_hv1toORTMQJguR9tx-30" value="sel[1]" style="edgeLabel;html=1;align=center;verticalAlign=middle;resizable=0;points=[];" vertex="1" connectable="0" parent="F4_hv1toORTMQJguR9tx-29">
          <mxGeometry x="0.0274" relative="1" as="geometry">
            <mxPoint x="1" y="19" as="offset" />
          </mxGeometry>
        </mxCell>
        <mxCell id="F4_hv1toORTMQJguR9tx-31" value="" style="endArrow=none;html=1;rounded=0;entryX=1;entryY=0.5;entryDx=0;entryDy=0;startFill=0;" edge="1" parent="F4_hv1toORTMQJguR9tx-37">
          <mxGeometry width="50" height="50" relative="1" as="geometry">
            <mxPoint x="280" y="220" as="sourcePoint" />
            <mxPoint x="320" y="220" as="targetPoint" />
          </mxGeometry>
        </mxCell>
        <mxCell id="F4_hv1toORTMQJguR9tx-32" value="" style="endArrow=none;html=1;rounded=0;entryX=1;entryY=0.5;entryDx=0;entryDy=0;startFill=0;" edge="1" parent="F4_hv1toORTMQJguR9tx-37">
          <mxGeometry width="50" height="50" relative="1" as="geometry">
            <mxPoint x="280" y="190" as="sourcePoint" />
            <mxPoint x="320" y="190" as="targetPoint" />
          </mxGeometry>
        </mxCell>
        <mxCell id="F4_hv1toORTMQJguR9tx-33" value="" style="endArrow=none;html=1;rounded=0;entryX=1;entryY=0.5;entryDx=0;entryDy=0;startFill=0;" edge="1" parent="F4_hv1toORTMQJguR9tx-37">
          <mxGeometry width="50" height="50" relative="1" as="geometry">
            <mxPoint x="280" y="160" as="sourcePoint" />
            <mxPoint x="320" y="160" as="targetPoint" />
          </mxGeometry>
        </mxCell>
        <mxCell id="F4_hv1toORTMQJguR9tx-34" value="" style="endArrow=none;html=1;rounded=0;entryX=1;entryY=0.5;entryDx=0;entryDy=0;startFill=0;" edge="1" parent="F4_hv1toORTMQJguR9tx-37">
          <mxGeometry width="50" height="50" relative="1" as="geometry">
            <mxPoint x="280" y="130" as="sourcePoint" />
            <mxPoint x="320" y="130" as="targetPoint" />
          </mxGeometry>
        </mxCell>
        <mxCell id="F4_hv1toORTMQJguR9tx-35" value="" style="endArrow=classic;html=1;rounded=0;entryX=0.405;entryY=0.188;entryDx=0;entryDy=0;entryPerimeter=0;" edge="1" parent="F4_hv1toORTMQJguR9tx-37">
          <mxGeometry width="50" height="50" relative="1" as="geometry">
            <mxPoint x="160" y="270" as="sourcePoint" />
            <mxPoint x="160" y="165" as="targetPoint" />
          </mxGeometry>
        </mxCell>
        <mxCell id="F4_hv1toORTMQJguR9tx-36" value="sel[2]" style="edgeLabel;html=1;align=center;verticalAlign=middle;resizable=0;points=[];" vertex="1" connectable="0" parent="F4_hv1toORTMQJguR9tx-35">
          <mxGeometry x="0.0274" relative="1" as="geometry">
            <mxPoint y="34" as="offset" />
          </mxGeometry>
        </mxCell>
        <mxCell id="IanWOak7Tam3zF0KnqAV-10" value="" style="group" parent="1" vertex="1" connectable="0">
          <mxGeometry x="640" y="490" width="240" height="100" as="geometry" />
        </mxCell>
        <mxCell id="IanWOak7Tam3zF0KnqAV-2" value="Register" style="rounded=1;whiteSpace=wrap;html=1;" parent="IanWOak7Tam3zF0KnqAV-10" vertex="1">
          <mxGeometry x="60" y="40" width="120" height="60" as="geometry" />
        </mxCell>
        <mxCell id="IanWOak7Tam3zF0KnqAV-3" value="" style="endArrow=classic;html=1;rounded=0;entryX=0;entryY=0.5;entryDx=0;entryDy=0;" parent="IanWOak7Tam3zF0KnqAV-10" target="IanWOak7Tam3zF0KnqAV-2" edge="1">
          <mxGeometry width="50" height="50" relative="1" as="geometry">
            <mxPoint y="70" as="sourcePoint" />
            <mxPoint x="20" y="60" as="targetPoint" />
          </mxGeometry>
        </mxCell>
        <mxCell id="IanWOak7Tam3zF0KnqAV-4" value="in(16)" style="edgeLabel;html=1;align=center;verticalAlign=middle;resizable=0;points=[];fontSize=9;" parent="IanWOak7Tam3zF0KnqAV-3" vertex="1" connectable="0">
          <mxGeometry x="-0.1967" y="-1" relative="1" as="geometry">
            <mxPoint as="offset" />
          </mxGeometry>
        </mxCell>
        <mxCell id="IanWOak7Tam3zF0KnqAV-5" value="" style="endArrow=classic;html=1;rounded=0;" parent="IanWOak7Tam3zF0KnqAV-10" edge="1">
          <mxGeometry width="50" height="50" relative="1" as="geometry">
            <mxPoint x="180" y="69.80000000000001" as="sourcePoint" />
            <mxPoint x="240" y="70" as="targetPoint" />
          </mxGeometry>
        </mxCell>
        <mxCell id="IanWOak7Tam3zF0KnqAV-6" value="out(16)" style="edgeLabel;html=1;align=center;verticalAlign=middle;resizable=0;points=[];fontSize=9;" parent="IanWOak7Tam3zF0KnqAV-5" vertex="1" connectable="0">
          <mxGeometry x="-0.1967" y="-1" relative="1" as="geometry">
            <mxPoint as="offset" />
          </mxGeometry>
        </mxCell>
        <mxCell id="IanWOak7Tam3zF0KnqAV-7" value="" style="triangle;whiteSpace=wrap;html=1;direction=north;" parent="IanWOak7Tam3zF0KnqAV-10" vertex="1">
          <mxGeometry x="110" y="80" width="20" height="20" as="geometry" />
        </mxCell>
        <mxCell id="IanWOak7Tam3zF0KnqAV-8" value="" style="endArrow=classic;html=1;rounded=0;entryX=0;entryY=0.5;entryDx=0;entryDy=0;" parent="IanWOak7Tam3zF0KnqAV-10" edge="1">
          <mxGeometry width="50" height="50" relative="1" as="geometry">
            <mxPoint x="120" as="sourcePoint" />
            <mxPoint x="120" y="40" as="targetPoint" />
          </mxGeometry>
        </mxCell>
        <mxCell id="IanWOak7Tam3zF0KnqAV-9" value="load" style="edgeLabel;html=1;align=center;verticalAlign=middle;resizable=0;points=[];fontSize=9;" parent="IanWOak7Tam3zF0KnqAV-8" vertex="1" connectable="0">
          <mxGeometry x="-0.1967" y="-1" relative="1" as="geometry">
            <mxPoint as="offset" />
          </mxGeometry>
        </mxCell>
        <mxCell id="F4_hv1toORTMQJguR9tx-11" value="" style="group" vertex="1" connectable="0" parent="1">
          <mxGeometry x="800" y="590" width="240" height="100" as="geometry" />
        </mxCell>
        <mxCell id="F4_hv1toORTMQJguR9tx-12" value="Register" style="rounded=1;whiteSpace=wrap;html=1;" vertex="1" parent="F4_hv1toORTMQJguR9tx-11">
          <mxGeometry x="60" y="40" width="120" height="60" as="geometry" />
        </mxCell>
        <mxCell id="F4_hv1toORTMQJguR9tx-13" value="" style="endArrow=classic;html=1;rounded=0;entryX=0;entryY=0.5;entryDx=0;entryDy=0;" edge="1" parent="F4_hv1toORTMQJguR9tx-11" target="F4_hv1toORTMQJguR9tx-12">
          <mxGeometry width="50" height="50" relative="1" as="geometry">
            <mxPoint y="70" as="sourcePoint" />
            <mxPoint x="20" y="60" as="targetPoint" />
          </mxGeometry>
        </mxCell>
        <mxCell id="F4_hv1toORTMQJguR9tx-14" value="in(16)" style="edgeLabel;html=1;align=center;verticalAlign=middle;resizable=0;points=[];fontSize=9;" vertex="1" connectable="0" parent="F4_hv1toORTMQJguR9tx-13">
          <mxGeometry x="-0.1967" y="-1" relative="1" as="geometry">
            <mxPoint as="offset" />
          </mxGeometry>
        </mxCell>
        <mxCell id="F4_hv1toORTMQJguR9tx-15" value="" style="endArrow=classic;html=1;rounded=0;" edge="1" parent="F4_hv1toORTMQJguR9tx-11">
          <mxGeometry width="50" height="50" relative="1" as="geometry">
            <mxPoint x="180" y="69.80000000000001" as="sourcePoint" />
            <mxPoint x="240" y="70" as="targetPoint" />
          </mxGeometry>
        </mxCell>
        <mxCell id="F4_hv1toORTMQJguR9tx-16" value="out(16)" style="edgeLabel;html=1;align=center;verticalAlign=middle;resizable=0;points=[];fontSize=9;" vertex="1" connectable="0" parent="F4_hv1toORTMQJguR9tx-15">
          <mxGeometry x="-0.1967" y="-1" relative="1" as="geometry">
            <mxPoint as="offset" />
          </mxGeometry>
        </mxCell>
        <mxCell id="F4_hv1toORTMQJguR9tx-17" value="" style="triangle;whiteSpace=wrap;html=1;direction=north;" vertex="1" parent="F4_hv1toORTMQJguR9tx-11">
          <mxGeometry x="110" y="80" width="20" height="20" as="geometry" />
        </mxCell>
        <mxCell id="F4_hv1toORTMQJguR9tx-18" value="" style="endArrow=classic;html=1;rounded=0;entryX=0;entryY=0.5;entryDx=0;entryDy=0;" edge="1" parent="F4_hv1toORTMQJguR9tx-11">
          <mxGeometry width="50" height="50" relative="1" as="geometry">
            <mxPoint x="120" as="sourcePoint" />
            <mxPoint x="120" y="40" as="targetPoint" />
          </mxGeometry>
        </mxCell>
        <mxCell id="F4_hv1toORTMQJguR9tx-19" value="load" style="edgeLabel;html=1;align=center;verticalAlign=middle;resizable=0;points=[];fontSize=9;" vertex="1" connectable="0" parent="F4_hv1toORTMQJguR9tx-18">
          <mxGeometry x="-0.1967" y="-1" relative="1" as="geometry">
            <mxPoint as="offset" />
          </mxGeometry>
        </mxCell>
        <mxCell id="F4_hv1toORTMQJguR9tx-38" value="" style="group" vertex="1" connectable="0" parent="1">
          <mxGeometry x="960" y="690" width="240" height="100" as="geometry" />
        </mxCell>
        <mxCell id="F4_hv1toORTMQJguR9tx-39" value="Register" style="rounded=1;whiteSpace=wrap;html=1;" vertex="1" parent="F4_hv1toORTMQJguR9tx-38">
          <mxGeometry x="60" y="40" width="120" height="60" as="geometry" />
        </mxCell>
        <mxCell id="F4_hv1toORTMQJguR9tx-40" value="" style="endArrow=classic;html=1;rounded=0;entryX=0;entryY=0.5;entryDx=0;entryDy=0;" edge="1" parent="F4_hv1toORTMQJguR9tx-38" target="F4_hv1toORTMQJguR9tx-39">
          <mxGeometry width="50" height="50" relative="1" as="geometry">
            <mxPoint y="70" as="sourcePoint" />
            <mxPoint x="20" y="60" as="targetPoint" />
          </mxGeometry>
        </mxCell>
        <mxCell id="F4_hv1toORTMQJguR9tx-41" value="in(16)" style="edgeLabel;html=1;align=center;verticalAlign=middle;resizable=0;points=[];fontSize=9;" vertex="1" connectable="0" parent="F4_hv1toORTMQJguR9tx-40">
          <mxGeometry x="-0.1967" y="-1" relative="1" as="geometry">
            <mxPoint as="offset" />
          </mxGeometry>
        </mxCell>
        <mxCell id="F4_hv1toORTMQJguR9tx-42" value="" style="endArrow=classic;html=1;rounded=0;" edge="1" parent="F4_hv1toORTMQJguR9tx-38">
          <mxGeometry width="50" height="50" relative="1" as="geometry">
            <mxPoint x="180" y="69.80000000000001" as="sourcePoint" />
            <mxPoint x="240" y="70" as="targetPoint" />
          </mxGeometry>
        </mxCell>
        <mxCell id="F4_hv1toORTMQJguR9tx-43" value="out(16)" style="edgeLabel;html=1;align=center;verticalAlign=middle;resizable=0;points=[];fontSize=9;" vertex="1" connectable="0" parent="F4_hv1toORTMQJguR9tx-42">
          <mxGeometry x="-0.1967" y="-1" relative="1" as="geometry">
            <mxPoint as="offset" />
          </mxGeometry>
        </mxCell>
        <mxCell id="F4_hv1toORTMQJguR9tx-44" value="" style="triangle;whiteSpace=wrap;html=1;direction=north;" vertex="1" parent="F4_hv1toORTMQJguR9tx-38">
          <mxGeometry x="110" y="80" width="20" height="20" as="geometry" />
        </mxCell>
        <mxCell id="F4_hv1toORTMQJguR9tx-45" value="" style="endArrow=classic;html=1;rounded=0;entryX=0;entryY=0.5;entryDx=0;entryDy=0;" edge="1" parent="F4_hv1toORTMQJguR9tx-38">
          <mxGeometry width="50" height="50" relative="1" as="geometry">
            <mxPoint x="120" as="sourcePoint" />
            <mxPoint x="120" y="40" as="targetPoint" />
          </mxGeometry>
        </mxCell>
        <mxCell id="F4_hv1toORTMQJguR9tx-46" value="load" style="edgeLabel;html=1;align=center;verticalAlign=middle;resizable=0;points=[];fontSize=9;" vertex="1" connectable="0" parent="F4_hv1toORTMQJguR9tx-45">
          <mxGeometry x="-0.1967" y="-1" relative="1" as="geometry">
            <mxPoint as="offset" />
          </mxGeometry>
        </mxCell>
        <mxCell id="F4_hv1toORTMQJguR9tx-47" value="" style="group" vertex="1" connectable="0" parent="1">
          <mxGeometry x="1120" y="790" width="240" height="100" as="geometry" />
        </mxCell>
        <mxCell id="F4_hv1toORTMQJguR9tx-48" value="Register" style="rounded=1;whiteSpace=wrap;html=1;" vertex="1" parent="F4_hv1toORTMQJguR9tx-47">
          <mxGeometry x="60" y="40" width="120" height="60" as="geometry" />
        </mxCell>
        <mxCell id="F4_hv1toORTMQJguR9tx-49" value="" style="endArrow=classic;html=1;rounded=0;entryX=0;entryY=0.5;entryDx=0;entryDy=0;" edge="1" parent="F4_hv1toORTMQJguR9tx-47" target="F4_hv1toORTMQJguR9tx-48">
          <mxGeometry width="50" height="50" relative="1" as="geometry">
            <mxPoint y="70" as="sourcePoint" />
            <mxPoint x="20" y="60" as="targetPoint" />
          </mxGeometry>
        </mxCell>
        <mxCell id="F4_hv1toORTMQJguR9tx-50" value="in(16)" style="edgeLabel;html=1;align=center;verticalAlign=middle;resizable=0;points=[];fontSize=9;" vertex="1" connectable="0" parent="F4_hv1toORTMQJguR9tx-49">
          <mxGeometry x="-0.1967" y="-1" relative="1" as="geometry">
            <mxPoint as="offset" />
          </mxGeometry>
        </mxCell>
        <mxCell id="F4_hv1toORTMQJguR9tx-51" value="" style="endArrow=classic;html=1;rounded=0;" edge="1" parent="F4_hv1toORTMQJguR9tx-47">
          <mxGeometry width="50" height="50" relative="1" as="geometry">
            <mxPoint x="180" y="69.80000000000001" as="sourcePoint" />
            <mxPoint x="240" y="70" as="targetPoint" />
          </mxGeometry>
        </mxCell>
        <mxCell id="F4_hv1toORTMQJguR9tx-52" value="out(16)" style="edgeLabel;html=1;align=center;verticalAlign=middle;resizable=0;points=[];fontSize=9;" vertex="1" connectable="0" parent="F4_hv1toORTMQJguR9tx-51">
          <mxGeometry x="-0.1967" y="-1" relative="1" as="geometry">
            <mxPoint as="offset" />
          </mxGeometry>
        </mxCell>
        <mxCell id="F4_hv1toORTMQJguR9tx-53" value="" style="triangle;whiteSpace=wrap;html=1;direction=north;" vertex="1" parent="F4_hv1toORTMQJguR9tx-47">
          <mxGeometry x="110" y="80" width="20" height="20" as="geometry" />
        </mxCell>
        <mxCell id="F4_hv1toORTMQJguR9tx-54" value="" style="endArrow=classic;html=1;rounded=0;entryX=0;entryY=0.5;entryDx=0;entryDy=0;" edge="1" parent="F4_hv1toORTMQJguR9tx-47">
          <mxGeometry width="50" height="50" relative="1" as="geometry">
            <mxPoint x="120" as="sourcePoint" />
            <mxPoint x="120" y="40" as="targetPoint" />
          </mxGeometry>
        </mxCell>
        <mxCell id="F4_hv1toORTMQJguR9tx-55" value="load" style="edgeLabel;html=1;align=center;verticalAlign=middle;resizable=0;points=[];fontSize=9;" vertex="1" connectable="0" parent="F4_hv1toORTMQJguR9tx-54">
          <mxGeometry x="-0.1967" y="-1" relative="1" as="geometry">
            <mxPoint as="offset" />
          </mxGeometry>
        </mxCell>
        <mxCell id="F4_hv1toORTMQJguR9tx-56" value="" style="group" vertex="1" connectable="0" parent="1">
          <mxGeometry x="1280" y="890" width="240" height="100" as="geometry" />
        </mxCell>
        <mxCell id="F4_hv1toORTMQJguR9tx-57" value="Register" style="rounded=1;whiteSpace=wrap;html=1;" vertex="1" parent="F4_hv1toORTMQJguR9tx-56">
          <mxGeometry x="60" y="40" width="120" height="60" as="geometry" />
        </mxCell>
        <mxCell id="F4_hv1toORTMQJguR9tx-58" value="" style="endArrow=classic;html=1;rounded=0;entryX=0;entryY=0.5;entryDx=0;entryDy=0;" edge="1" parent="F4_hv1toORTMQJguR9tx-56" target="F4_hv1toORTMQJguR9tx-57">
          <mxGeometry width="50" height="50" relative="1" as="geometry">
            <mxPoint y="70" as="sourcePoint" />
            <mxPoint x="20" y="60" as="targetPoint" />
          </mxGeometry>
        </mxCell>
        <mxCell id="F4_hv1toORTMQJguR9tx-59" value="in(16)" style="edgeLabel;html=1;align=center;verticalAlign=middle;resizable=0;points=[];fontSize=9;" vertex="1" connectable="0" parent="F4_hv1toORTMQJguR9tx-58">
          <mxGeometry x="-0.1967" y="-1" relative="1" as="geometry">
            <mxPoint as="offset" />
          </mxGeometry>
        </mxCell>
        <mxCell id="F4_hv1toORTMQJguR9tx-60" value="" style="endArrow=classic;html=1;rounded=0;" edge="1" parent="F4_hv1toORTMQJguR9tx-56">
          <mxGeometry width="50" height="50" relative="1" as="geometry">
            <mxPoint x="180" y="69.80000000000001" as="sourcePoint" />
            <mxPoint x="240" y="70" as="targetPoint" />
          </mxGeometry>
        </mxCell>
        <mxCell id="F4_hv1toORTMQJguR9tx-61" value="out(16)" style="edgeLabel;html=1;align=center;verticalAlign=middle;resizable=0;points=[];fontSize=9;" vertex="1" connectable="0" parent="F4_hv1toORTMQJguR9tx-60">
          <mxGeometry x="-0.1967" y="-1" relative="1" as="geometry">
            <mxPoint as="offset" />
          </mxGeometry>
        </mxCell>
        <mxCell id="F4_hv1toORTMQJguR9tx-62" value="" style="triangle;whiteSpace=wrap;html=1;direction=north;" vertex="1" parent="F4_hv1toORTMQJguR9tx-56">
          <mxGeometry x="110" y="80" width="20" height="20" as="geometry" />
        </mxCell>
        <mxCell id="F4_hv1toORTMQJguR9tx-63" value="" style="endArrow=classic;html=1;rounded=0;entryX=0;entryY=0.5;entryDx=0;entryDy=0;" edge="1" parent="F4_hv1toORTMQJguR9tx-56">
          <mxGeometry width="50" height="50" relative="1" as="geometry">
            <mxPoint x="120" as="sourcePoint" />
            <mxPoint x="120" y="40" as="targetPoint" />
          </mxGeometry>
        </mxCell>
        <mxCell id="F4_hv1toORTMQJguR9tx-64" value="load" style="edgeLabel;html=1;align=center;verticalAlign=middle;resizable=0;points=[];fontSize=9;" vertex="1" connectable="0" parent="F4_hv1toORTMQJguR9tx-63">
          <mxGeometry x="-0.1967" y="-1" relative="1" as="geometry">
            <mxPoint as="offset" />
          </mxGeometry>
        </mxCell>
        <mxCell id="F4_hv1toORTMQJguR9tx-65" value="" style="group" vertex="1" connectable="0" parent="1">
          <mxGeometry x="1440" y="990" width="240" height="100" as="geometry" />
        </mxCell>
        <mxCell id="F4_hv1toORTMQJguR9tx-66" value="Register" style="rounded=1;whiteSpace=wrap;html=1;" vertex="1" parent="F4_hv1toORTMQJguR9tx-65">
          <mxGeometry x="60" y="40" width="120" height="60" as="geometry" />
        </mxCell>
        <mxCell id="F4_hv1toORTMQJguR9tx-67" value="" style="endArrow=classic;html=1;rounded=0;entryX=0;entryY=0.5;entryDx=0;entryDy=0;" edge="1" parent="F4_hv1toORTMQJguR9tx-65" target="F4_hv1toORTMQJguR9tx-66">
          <mxGeometry width="50" height="50" relative="1" as="geometry">
            <mxPoint y="70" as="sourcePoint" />
            <mxPoint x="20" y="60" as="targetPoint" />
          </mxGeometry>
        </mxCell>
        <mxCell id="F4_hv1toORTMQJguR9tx-68" value="in(16)" style="edgeLabel;html=1;align=center;verticalAlign=middle;resizable=0;points=[];fontSize=9;" vertex="1" connectable="0" parent="F4_hv1toORTMQJguR9tx-67">
          <mxGeometry x="-0.1967" y="-1" relative="1" as="geometry">
            <mxPoint as="offset" />
          </mxGeometry>
        </mxCell>
        <mxCell id="F4_hv1toORTMQJguR9tx-69" value="" style="endArrow=classic;html=1;rounded=0;" edge="1" parent="F4_hv1toORTMQJguR9tx-65">
          <mxGeometry width="50" height="50" relative="1" as="geometry">
            <mxPoint x="180" y="69.80000000000001" as="sourcePoint" />
            <mxPoint x="240" y="70" as="targetPoint" />
          </mxGeometry>
        </mxCell>
        <mxCell id="F4_hv1toORTMQJguR9tx-70" value="out(16)" style="edgeLabel;html=1;align=center;verticalAlign=middle;resizable=0;points=[];fontSize=9;" vertex="1" connectable="0" parent="F4_hv1toORTMQJguR9tx-69">
          <mxGeometry x="-0.1967" y="-1" relative="1" as="geometry">
            <mxPoint as="offset" />
          </mxGeometry>
        </mxCell>
        <mxCell id="F4_hv1toORTMQJguR9tx-71" value="" style="triangle;whiteSpace=wrap;html=1;direction=north;" vertex="1" parent="F4_hv1toORTMQJguR9tx-65">
          <mxGeometry x="110" y="80" width="20" height="20" as="geometry" />
        </mxCell>
        <mxCell id="F4_hv1toORTMQJguR9tx-72" value="" style="endArrow=classic;html=1;rounded=0;entryX=0;entryY=0.5;entryDx=0;entryDy=0;" edge="1" parent="F4_hv1toORTMQJguR9tx-65">
          <mxGeometry width="50" height="50" relative="1" as="geometry">
            <mxPoint x="120" as="sourcePoint" />
            <mxPoint x="120" y="40" as="targetPoint" />
          </mxGeometry>
        </mxCell>
        <mxCell id="F4_hv1toORTMQJguR9tx-73" value="load" style="edgeLabel;html=1;align=center;verticalAlign=middle;resizable=0;points=[];fontSize=9;" vertex="1" connectable="0" parent="F4_hv1toORTMQJguR9tx-72">
          <mxGeometry x="-0.1967" y="-1" relative="1" as="geometry">
            <mxPoint as="offset" />
          </mxGeometry>
        </mxCell>
        <mxCell id="F4_hv1toORTMQJguR9tx-74" value="" style="group" vertex="1" connectable="0" parent="1">
          <mxGeometry x="1600" y="1090" width="240" height="100" as="geometry" />
        </mxCell>
        <mxCell id="F4_hv1toORTMQJguR9tx-75" value="Register" style="rounded=1;whiteSpace=wrap;html=1;" vertex="1" parent="F4_hv1toORTMQJguR9tx-74">
          <mxGeometry x="60" y="40" width="120" height="60" as="geometry" />
        </mxCell>
        <mxCell id="F4_hv1toORTMQJguR9tx-76" value="" style="endArrow=classic;html=1;rounded=0;entryX=0;entryY=0.5;entryDx=0;entryDy=0;" edge="1" parent="F4_hv1toORTMQJguR9tx-74" target="F4_hv1toORTMQJguR9tx-75">
          <mxGeometry width="50" height="50" relative="1" as="geometry">
            <mxPoint y="70" as="sourcePoint" />
            <mxPoint x="20" y="60" as="targetPoint" />
          </mxGeometry>
        </mxCell>
        <mxCell id="F4_hv1toORTMQJguR9tx-77" value="in(16)" style="edgeLabel;html=1;align=center;verticalAlign=middle;resizable=0;points=[];fontSize=9;" vertex="1" connectable="0" parent="F4_hv1toORTMQJguR9tx-76">
          <mxGeometry x="-0.1967" y="-1" relative="1" as="geometry">
            <mxPoint as="offset" />
          </mxGeometry>
        </mxCell>
        <mxCell id="F4_hv1toORTMQJguR9tx-78" value="" style="endArrow=classic;html=1;rounded=0;" edge="1" parent="F4_hv1toORTMQJguR9tx-74">
          <mxGeometry width="50" height="50" relative="1" as="geometry">
            <mxPoint x="180" y="69.80000000000001" as="sourcePoint" />
            <mxPoint x="240" y="70" as="targetPoint" />
          </mxGeometry>
        </mxCell>
        <mxCell id="F4_hv1toORTMQJguR9tx-79" value="out(16)" style="edgeLabel;html=1;align=center;verticalAlign=middle;resizable=0;points=[];fontSize=9;" vertex="1" connectable="0" parent="F4_hv1toORTMQJguR9tx-78">
          <mxGeometry x="-0.1967" y="-1" relative="1" as="geometry">
            <mxPoint as="offset" />
          </mxGeometry>
        </mxCell>
        <mxCell id="F4_hv1toORTMQJguR9tx-80" value="" style="triangle;whiteSpace=wrap;html=1;direction=north;" vertex="1" parent="F4_hv1toORTMQJguR9tx-74">
          <mxGeometry x="110" y="80" width="20" height="20" as="geometry" />
        </mxCell>
        <mxCell id="F4_hv1toORTMQJguR9tx-81" value="" style="endArrow=classic;html=1;rounded=0;entryX=0;entryY=0.5;entryDx=0;entryDy=0;" edge="1" parent="F4_hv1toORTMQJguR9tx-74">
          <mxGeometry width="50" height="50" relative="1" as="geometry">
            <mxPoint x="120" as="sourcePoint" />
            <mxPoint x="120" y="40" as="targetPoint" />
          </mxGeometry>
        </mxCell>
        <mxCell id="F4_hv1toORTMQJguR9tx-82" value="load" style="edgeLabel;html=1;align=center;verticalAlign=middle;resizable=0;points=[];fontSize=9;" vertex="1" connectable="0" parent="F4_hv1toORTMQJguR9tx-81">
          <mxGeometry x="-0.1967" y="-1" relative="1" as="geometry">
            <mxPoint as="offset" />
          </mxGeometry>
        </mxCell>
        <mxCell id="F4_hv1toORTMQJguR9tx-83" value="" style="group" vertex="1" connectable="0" parent="1">
          <mxGeometry x="1760" y="1190" width="240" height="100" as="geometry" />
        </mxCell>
        <mxCell id="F4_hv1toORTMQJguR9tx-84" value="Register" style="rounded=1;whiteSpace=wrap;html=1;" vertex="1" parent="F4_hv1toORTMQJguR9tx-83">
          <mxGeometry x="60" y="40" width="120" height="60" as="geometry" />
        </mxCell>
        <mxCell id="F4_hv1toORTMQJguR9tx-85" value="" style="endArrow=classic;html=1;rounded=0;entryX=0;entryY=0.5;entryDx=0;entryDy=0;" edge="1" parent="F4_hv1toORTMQJguR9tx-83" target="F4_hv1toORTMQJguR9tx-84">
          <mxGeometry width="50" height="50" relative="1" as="geometry">
            <mxPoint y="70" as="sourcePoint" />
            <mxPoint x="20" y="60" as="targetPoint" />
          </mxGeometry>
        </mxCell>
        <mxCell id="F4_hv1toORTMQJguR9tx-86" value="in(16)" style="edgeLabel;html=1;align=center;verticalAlign=middle;resizable=0;points=[];fontSize=9;" vertex="1" connectable="0" parent="F4_hv1toORTMQJguR9tx-85">
          <mxGeometry x="-0.1967" y="-1" relative="1" as="geometry">
            <mxPoint as="offset" />
          </mxGeometry>
        </mxCell>
        <mxCell id="F4_hv1toORTMQJguR9tx-87" value="" style="endArrow=classic;html=1;rounded=0;" edge="1" parent="F4_hv1toORTMQJguR9tx-83">
          <mxGeometry width="50" height="50" relative="1" as="geometry">
            <mxPoint x="180" y="69.80000000000001" as="sourcePoint" />
            <mxPoint x="240" y="70" as="targetPoint" />
          </mxGeometry>
        </mxCell>
        <mxCell id="F4_hv1toORTMQJguR9tx-88" value="out(16)" style="edgeLabel;html=1;align=center;verticalAlign=middle;resizable=0;points=[];fontSize=9;" vertex="1" connectable="0" parent="F4_hv1toORTMQJguR9tx-87">
          <mxGeometry x="-0.1967" y="-1" relative="1" as="geometry">
            <mxPoint as="offset" />
          </mxGeometry>
        </mxCell>
        <mxCell id="F4_hv1toORTMQJguR9tx-89" value="" style="triangle;whiteSpace=wrap;html=1;direction=north;" vertex="1" parent="F4_hv1toORTMQJguR9tx-83">
          <mxGeometry x="110" y="80" width="20" height="20" as="geometry" />
        </mxCell>
        <mxCell id="F4_hv1toORTMQJguR9tx-90" value="" style="endArrow=classic;html=1;rounded=0;entryX=0;entryY=0.5;entryDx=0;entryDy=0;" edge="1" parent="F4_hv1toORTMQJguR9tx-83">
          <mxGeometry width="50" height="50" relative="1" as="geometry">
            <mxPoint x="120" as="sourcePoint" />
            <mxPoint x="120" y="40" as="targetPoint" />
          </mxGeometry>
        </mxCell>
        <mxCell id="F4_hv1toORTMQJguR9tx-91" value="load" style="edgeLabel;html=1;align=center;verticalAlign=middle;resizable=0;points=[];fontSize=9;" vertex="1" connectable="0" parent="F4_hv1toORTMQJguR9tx-90">
          <mxGeometry x="-0.1967" y="-1" relative="1" as="geometry">
            <mxPoint as="offset" />
          </mxGeometry>
        </mxCell>
        <mxCell id="F4_hv1toORTMQJguR9tx-92" value="" style="endArrow=classic;html=1;rounded=0;exitX=0.001;exitY=0.113;exitDx=0;exitDy=0;exitPerimeter=0;" edge="1" parent="1" source="F4_hv1toORTMQJguR9tx-147">
          <mxGeometry width="50" height="50" relative="1" as="geometry">
            <mxPoint x="240" y="240" as="sourcePoint" />
            <mxPoint x="320" y="240" as="targetPoint" />
          </mxGeometry>
        </mxCell>
        <mxCell id="F4_hv1toORTMQJguR9tx-94" value="" style="endArrow=classic;html=1;rounded=0;" edge="1" parent="1">
          <mxGeometry width="50" height="50" relative="1" as="geometry">
            <mxPoint x="80" y="460" as="sourcePoint" />
            <mxPoint x="200" y="460" as="targetPoint" />
          </mxGeometry>
        </mxCell>
        <mxCell id="F4_hv1toORTMQJguR9tx-95" value="address(3 bits)" style="edgeLabel;html=1;align=center;verticalAlign=middle;resizable=0;points=[];fontSize=15;" vertex="1" connectable="0" parent="F4_hv1toORTMQJguR9tx-94">
          <mxGeometry x="-0.0236" y="-1" relative="1" as="geometry">
            <mxPoint as="offset" />
          </mxGeometry>
        </mxCell>
        <mxCell id="F4_hv1toORTMQJguR9tx-96" value="" style="endArrow=classic;html=1;rounded=0;edgeStyle=orthogonalEdgeStyle;" edge="1" parent="1">
          <mxGeometry width="50" height="50" relative="1" as="geometry">
            <mxPoint x="200" y="460" as="sourcePoint" />
            <mxPoint x="480" y="390" as="targetPoint" />
          </mxGeometry>
        </mxCell>
        <mxCell id="F4_hv1toORTMQJguR9tx-99" value="[2]" style="edgeLabel;html=1;align=center;verticalAlign=middle;resizable=0;points=[];" vertex="1" connectable="0" parent="F4_hv1toORTMQJguR9tx-96">
          <mxGeometry x="0.7556" y="1" relative="1" as="geometry">
            <mxPoint as="offset" />
          </mxGeometry>
        </mxCell>
        <mxCell id="F4_hv1toORTMQJguR9tx-97" value="" style="endArrow=classic;html=1;rounded=0;edgeStyle=orthogonalEdgeStyle;" edge="1" parent="1">
          <mxGeometry width="50" height="50" relative="1" as="geometry">
            <mxPoint x="240" y="460" as="sourcePoint" />
            <mxPoint x="520" y="390" as="targetPoint" />
          </mxGeometry>
        </mxCell>
        <mxCell id="F4_hv1toORTMQJguR9tx-100" value="[1]" style="edgeLabel;html=1;align=center;verticalAlign=middle;resizable=0;points=[];" vertex="1" connectable="0" parent="F4_hv1toORTMQJguR9tx-97">
          <mxGeometry x="0.7529" y="1" relative="1" as="geometry">
            <mxPoint as="offset" />
          </mxGeometry>
        </mxCell>
        <mxCell id="F4_hv1toORTMQJguR9tx-98" value="" style="endArrow=classic;html=1;rounded=0;edgeStyle=orthogonalEdgeStyle;" edge="1" parent="1">
          <mxGeometry width="50" height="50" relative="1" as="geometry">
            <mxPoint x="280" y="460" as="sourcePoint" />
            <mxPoint x="560" y="390" as="targetPoint" />
          </mxGeometry>
        </mxCell>
        <mxCell id="F4_hv1toORTMQJguR9tx-101" value="[0]" style="edgeLabel;html=1;align=center;verticalAlign=middle;resizable=0;points=[];" vertex="1" connectable="0" parent="F4_hv1toORTMQJguR9tx-98">
          <mxGeometry x="0.7529" relative="1" as="geometry">
            <mxPoint as="offset" />
          </mxGeometry>
        </mxCell>
        <mxCell id="F4_hv1toORTMQJguR9tx-102" value="" style="endArrow=classic;html=1;rounded=0;edgeStyle=orthogonalEdgeStyle;fillColor=#a20025;strokeColor=#FF0000;" edge="1" parent="1">
          <mxGeometry width="50" height="50" relative="1" as="geometry">
            <mxPoint x="640" y="140" as="sourcePoint" />
            <mxPoint x="760" y="490" as="targetPoint" />
          </mxGeometry>
        </mxCell>
        <mxCell id="F4_hv1toORTMQJguR9tx-103" value="" style="endArrow=classic;html=1;rounded=0;edgeStyle=orthogonalEdgeStyle;fillColor=#a20025;strokeColor=#FF8000;" edge="1" parent="1">
          <mxGeometry width="50" height="50" relative="1" as="geometry">
            <mxPoint x="640" y="170" as="sourcePoint" />
            <mxPoint x="920" y="590" as="targetPoint" />
          </mxGeometry>
        </mxCell>
        <mxCell id="F4_hv1toORTMQJguR9tx-104" value="" style="endArrow=classic;html=1;rounded=0;edgeStyle=orthogonalEdgeStyle;fillColor=#a20025;strokeColor=#FFFF33;" edge="1" parent="1">
          <mxGeometry width="50" height="50" relative="1" as="geometry">
            <mxPoint x="640" y="200" as="sourcePoint" />
            <mxPoint x="1080" y="690" as="targetPoint" />
          </mxGeometry>
        </mxCell>
        <mxCell id="F4_hv1toORTMQJguR9tx-105" value="" style="endArrow=classic;html=1;rounded=0;edgeStyle=orthogonalEdgeStyle;fillColor=#008a00;strokeColor=#00FF00;" edge="1" parent="1">
          <mxGeometry width="50" height="50" relative="1" as="geometry">
            <mxPoint x="640" y="230" as="sourcePoint" />
            <mxPoint x="1240" y="790" as="targetPoint" />
          </mxGeometry>
        </mxCell>
        <mxCell id="F4_hv1toORTMQJguR9tx-106" value="" style="endArrow=classic;html=1;rounded=0;edgeStyle=orthogonalEdgeStyle;strokeColor=#00FFFF;" edge="1" parent="1">
          <mxGeometry width="50" height="50" relative="1" as="geometry">
            <mxPoint x="640" y="250" as="sourcePoint" />
            <mxPoint x="1400" y="890" as="targetPoint" />
          </mxGeometry>
        </mxCell>
        <mxCell id="F4_hv1toORTMQJguR9tx-107" value="" style="endArrow=classic;html=1;rounded=0;edgeStyle=orthogonalEdgeStyle;strokeColor=#0000FF;" edge="1" parent="1">
          <mxGeometry width="50" height="50" relative="1" as="geometry">
            <mxPoint x="640" y="280" as="sourcePoint" />
            <mxPoint x="1560" y="990" as="targetPoint" />
          </mxGeometry>
        </mxCell>
        <mxCell id="F4_hv1toORTMQJguR9tx-108" value="" style="endArrow=classic;html=1;rounded=0;edgeStyle=orthogonalEdgeStyle;fillColor=#a20025;strokeColor=#4C0099;" edge="1" parent="1">
          <mxGeometry width="50" height="50" relative="1" as="geometry">
            <mxPoint x="640" y="310" as="sourcePoint" />
            <mxPoint x="1720" y="1095" as="targetPoint" />
          </mxGeometry>
        </mxCell>
        <mxCell id="F4_hv1toORTMQJguR9tx-109" value="" style="endArrow=classic;html=1;rounded=0;edgeStyle=orthogonalEdgeStyle;fillColor=#a20025;strokeColor=#FF3399;" edge="1" parent="1">
          <mxGeometry width="50" height="50" relative="1" as="geometry">
            <mxPoint x="630" y="340" as="sourcePoint" />
            <mxPoint x="1880" y="1190" as="targetPoint" />
          </mxGeometry>
        </mxCell>
        <mxCell id="F4_hv1toORTMQJguR9tx-110" value="" style="endArrow=classic;html=1;rounded=0;edgeStyle=orthogonalEdgeStyle;" edge="1" parent="1">
          <mxGeometry width="50" height="50" relative="1" as="geometry">
            <mxPoint x="199.76" y="460" as="sourcePoint" />
            <mxPoint x="2200" y="730" as="targetPoint" />
          </mxGeometry>
        </mxCell>
        <mxCell id="F4_hv1toORTMQJguR9tx-121" value="[2]" style="edgeLabel;html=1;align=center;verticalAlign=middle;resizable=0;points=[];" vertex="1" connectable="0" parent="F4_hv1toORTMQJguR9tx-110">
          <mxGeometry x="0.8855" y="-1" relative="1" as="geometry">
            <mxPoint y="-1" as="offset" />
          </mxGeometry>
        </mxCell>
        <mxCell id="F4_hv1toORTMQJguR9tx-146" style="edgeStyle=orthogonalEdgeStyle;rounded=0;orthogonalLoop=1;jettySize=auto;html=1;" edge="1" parent="1" source="F4_hv1toORTMQJguR9tx-2">
          <mxGeometry relative="1" as="geometry">
            <mxPoint x="2400" y="880" as="targetPoint" />
          </mxGeometry>
        </mxCell>
        <mxCell id="F4_hv1toORTMQJguR9tx-2" value="Mux8Way16" style="triangle;whiteSpace=wrap;html=1;container=0;" vertex="1" parent="1">
          <mxGeometry x="2150" y="760" width="160" height="240" as="geometry" />
        </mxCell>
        <mxCell id="F4_hv1toORTMQJguR9tx-7" value="" style="endArrow=none;html=1;rounded=0;startArrow=classic;startFill=1;exitX=0.561;exitY=0.276;exitDx=0;exitDy=0;exitPerimeter=0;" edge="1" parent="1" source="F4_hv1toORTMQJguR9tx-2">
          <mxGeometry width="50" height="50" relative="1" as="geometry">
            <mxPoint x="2240" y="820" as="sourcePoint" />
            <mxPoint x="2240" y="730" as="targetPoint" />
          </mxGeometry>
        </mxCell>
        <mxCell id="F4_hv1toORTMQJguR9tx-8" value="sel[1]" style="edgeLabel;html=1;align=center;verticalAlign=middle;resizable=0;points=[];container=0;" vertex="1" connectable="0" parent="F4_hv1toORTMQJguR9tx-7">
          <mxGeometry x="0.0527" relative="1" as="geometry">
            <mxPoint y="-26" as="offset" />
          </mxGeometry>
        </mxCell>
        <mxCell id="F4_hv1toORTMQJguR9tx-9" value="" style="endArrow=classic;html=1;rounded=0;entryX=0.814;entryY=0.4;entryDx=0;entryDy=0;entryPerimeter=0;" edge="1" parent="1" target="F4_hv1toORTMQJguR9tx-2">
          <mxGeometry width="50" height="50" relative="1" as="geometry">
            <mxPoint x="2280" y="730" as="sourcePoint" />
            <mxPoint x="2280.0000000000005" y="682.27" as="targetPoint" />
          </mxGeometry>
        </mxCell>
        <mxCell id="F4_hv1toORTMQJguR9tx-10" value="sel[0]" style="edgeLabel;html=1;align=center;verticalAlign=middle;resizable=0;points=[];container=0;" vertex="1" connectable="0" parent="F4_hv1toORTMQJguR9tx-9">
          <mxGeometry x="-0.0523" y="-1" relative="1" as="geometry">
            <mxPoint x="-1" y="-40" as="offset" />
          </mxGeometry>
        </mxCell>
        <mxCell id="F4_hv1toORTMQJguR9tx-116" value="" style="endArrow=none;html=1;rounded=0;startArrow=classic;startFill=1;exitX=0.561;exitY=0.276;exitDx=0;exitDy=0;exitPerimeter=0;" edge="1" parent="1">
          <mxGeometry width="50" height="50" relative="1" as="geometry">
            <mxPoint x="2200" y="796" as="sourcePoint" />
            <mxPoint x="2200" y="730" as="targetPoint" />
          </mxGeometry>
        </mxCell>
        <mxCell id="F4_hv1toORTMQJguR9tx-117" value="sel[2]" style="edgeLabel;html=1;align=center;verticalAlign=middle;resizable=0;points=[];container=0;" vertex="1" connectable="0" parent="F4_hv1toORTMQJguR9tx-116">
          <mxGeometry x="0.0527" relative="1" as="geometry">
            <mxPoint y="-11" as="offset" />
          </mxGeometry>
        </mxCell>
        <mxCell id="F4_hv1toORTMQJguR9tx-119" value="" style="endArrow=classic;html=1;rounded=0;edgeStyle=orthogonalEdgeStyle;" edge="1" parent="1">
          <mxGeometry width="50" height="50" relative="1" as="geometry">
            <mxPoint x="239.51" y="460" as="sourcePoint" />
            <mxPoint x="2240" y="730" as="targetPoint" />
          </mxGeometry>
        </mxCell>
        <mxCell id="F4_hv1toORTMQJguR9tx-122" value="[1]" style="edgeLabel;html=1;align=center;verticalAlign=middle;resizable=0;points=[];" vertex="1" connectable="0" parent="F4_hv1toORTMQJguR9tx-119">
          <mxGeometry x="0.8891" relative="1" as="geometry">
            <mxPoint y="-5" as="offset" />
          </mxGeometry>
        </mxCell>
        <mxCell id="F4_hv1toORTMQJguR9tx-120" value="" style="endArrow=classic;html=1;rounded=0;edgeStyle=orthogonalEdgeStyle;" edge="1" parent="1">
          <mxGeometry width="50" height="50" relative="1" as="geometry">
            <mxPoint x="279.76" y="460" as="sourcePoint" />
            <mxPoint x="2280" y="730" as="targetPoint" />
          </mxGeometry>
        </mxCell>
        <mxCell id="F4_hv1toORTMQJguR9tx-123" value="[0]" style="edgeLabel;html=1;align=center;verticalAlign=middle;resizable=0;points=[];" vertex="1" connectable="0" parent="F4_hv1toORTMQJguR9tx-120">
          <mxGeometry x="0.8904" relative="1" as="geometry">
            <mxPoint y="-7" as="offset" />
          </mxGeometry>
        </mxCell>
        <mxCell id="F4_hv1toORTMQJguR9tx-124" value="" style="endArrow=classic;html=1;rounded=0;edgeStyle=orthogonalEdgeStyle;entryX=0;entryY=0.958;entryDx=0;entryDy=0;entryPerimeter=0;" edge="1" parent="1" target="F4_hv1toORTMQJguR9tx-2">
          <mxGeometry width="50" height="50" relative="1" as="geometry">
            <mxPoint x="2000" y="1260" as="sourcePoint" />
            <mxPoint x="2040" y="1260" as="targetPoint" />
            <Array as="points">
              <mxPoint x="2000" y="1261" />
              <mxPoint x="2040" y="1261" />
              <mxPoint x="2040" y="990" />
            </Array>
          </mxGeometry>
        </mxCell>
        <mxCell id="F4_hv1toORTMQJguR9tx-125" value="" style="endArrow=classic;html=1;rounded=0;edgeStyle=orthogonalEdgeStyle;entryX=0;entryY=0.833;entryDx=0;entryDy=0;entryPerimeter=0;" edge="1" parent="1" target="F4_hv1toORTMQJguR9tx-2">
          <mxGeometry width="50" height="50" relative="1" as="geometry">
            <mxPoint x="1840" y="1160" as="sourcePoint" />
            <mxPoint x="2000" y="1160" as="targetPoint" />
            <Array as="points">
              <mxPoint x="1840" y="1161" />
              <mxPoint x="2000" y="1161" />
              <mxPoint x="2000" y="960" />
            </Array>
          </mxGeometry>
        </mxCell>
        <mxCell id="F4_hv1toORTMQJguR9tx-126" value="" style="endArrow=classic;html=1;rounded=0;edgeStyle=orthogonalEdgeStyle;entryX=0;entryY=0.708;entryDx=0;entryDy=0;entryPerimeter=0;" edge="1" parent="1" target="F4_hv1toORTMQJguR9tx-2">
          <mxGeometry width="50" height="50" relative="1" as="geometry">
            <mxPoint x="1680" y="1060" as="sourcePoint" />
            <mxPoint x="2090" y="930" as="targetPoint" />
            <Array as="points">
              <mxPoint x="1680" y="1061" />
              <mxPoint x="1960" y="1061" />
              <mxPoint x="1960" y="930" />
            </Array>
          </mxGeometry>
        </mxCell>
        <mxCell id="F4_hv1toORTMQJguR9tx-127" value="" style="endArrow=classic;html=1;rounded=0;edgeStyle=orthogonalEdgeStyle;entryX=0;entryY=0.583;entryDx=0;entryDy=0;entryPerimeter=0;" edge="1" parent="1" target="F4_hv1toORTMQJguR9tx-2">
          <mxGeometry width="50" height="50" relative="1" as="geometry">
            <mxPoint x="1520" y="959" as="sourcePoint" />
            <mxPoint x="2090" y="900" as="targetPoint" />
            <Array as="points">
              <mxPoint x="1920" y="959" />
              <mxPoint x="1920" y="900" />
            </Array>
          </mxGeometry>
        </mxCell>
        <mxCell id="F4_hv1toORTMQJguR9tx-128" value="" style="endArrow=classic;html=1;rounded=0;entryX=0.002;entryY=0.408;entryDx=0;entryDy=0;entryPerimeter=0;" edge="1" parent="1" target="F4_hv1toORTMQJguR9tx-2">
          <mxGeometry width="50" height="50" relative="1" as="geometry">
            <mxPoint x="1360" y="860" as="sourcePoint" />
            <mxPoint x="1640" y="860" as="targetPoint" />
          </mxGeometry>
        </mxCell>
        <mxCell id="F4_hv1toORTMQJguR9tx-129" value="" style="endArrow=classic;html=1;rounded=0;edgeStyle=orthogonalEdgeStyle;entryX=-0.006;entryY=0.292;entryDx=0;entryDy=0;entryPerimeter=0;" edge="1" parent="1" target="F4_hv1toORTMQJguR9tx-2">
          <mxGeometry width="50" height="50" relative="1" as="geometry">
            <mxPoint x="1200" y="760" as="sourcePoint" />
            <mxPoint x="1960" y="758" as="targetPoint" />
            <Array as="points">
              <mxPoint x="1920" y="761" />
              <mxPoint x="1920" y="830" />
            </Array>
          </mxGeometry>
        </mxCell>
        <mxCell id="F4_hv1toORTMQJguR9tx-130" value="" style="endArrow=classic;html=1;rounded=0;edgeStyle=orthogonalEdgeStyle;entryX=-0.003;entryY=0.162;entryDx=0;entryDy=0;entryPerimeter=0;" edge="1" parent="1" target="F4_hv1toORTMQJguR9tx-2">
          <mxGeometry width="50" height="50" relative="1" as="geometry">
            <mxPoint x="1040" y="660" as="sourcePoint" />
            <mxPoint x="2000" y="660" as="targetPoint" />
            <Array as="points">
              <mxPoint x="1960" y="661" />
              <mxPoint x="1960" y="799" />
            </Array>
          </mxGeometry>
        </mxCell>
        <mxCell id="F4_hv1toORTMQJguR9tx-131" value="" style="endArrow=classic;html=1;rounded=0;edgeStyle=orthogonalEdgeStyle;entryX=-0.006;entryY=0.046;entryDx=0;entryDy=0;entryPerimeter=0;" edge="1" parent="1" target="F4_hv1toORTMQJguR9tx-2">
          <mxGeometry width="50" height="50" relative="1" as="geometry">
            <mxPoint x="880" y="560" as="sourcePoint" />
            <mxPoint x="2040" y="560" as="targetPoint" />
            <Array as="points">
              <mxPoint x="2000" y="560" />
              <mxPoint x="2000" y="771" />
            </Array>
          </mxGeometry>
        </mxCell>
        <mxCell id="F4_hv1toORTMQJguR9tx-133" style="edgeStyle=orthogonalEdgeStyle;rounded=0;orthogonalLoop=1;jettySize=auto;html=1;" edge="1" parent="1">
          <mxGeometry relative="1" as="geometry">
            <mxPoint x="640" y="559.9999999999998" as="targetPoint" />
            <mxPoint x="200" y="910.0000000000002" as="sourcePoint" />
            <Array as="points">
              <mxPoint x="520" y="910" />
              <mxPoint x="520" y="560" />
            </Array>
          </mxGeometry>
        </mxCell>
        <mxCell id="F4_hv1toORTMQJguR9tx-134" style="edgeStyle=orthogonalEdgeStyle;rounded=0;orthogonalLoop=1;jettySize=auto;html=1;" edge="1" parent="1">
          <mxGeometry relative="1" as="geometry">
            <mxPoint x="800" y="659.9999999999998" as="targetPoint" />
            <mxPoint x="200" y="910.0000000000002" as="sourcePoint" />
            <Array as="points">
              <mxPoint x="520" y="910" />
              <mxPoint x="520" y="660" />
            </Array>
          </mxGeometry>
        </mxCell>
        <mxCell id="F4_hv1toORTMQJguR9tx-136" style="edgeStyle=orthogonalEdgeStyle;rounded=0;orthogonalLoop=1;jettySize=auto;html=1;" edge="1" parent="1">
          <mxGeometry relative="1" as="geometry">
            <mxPoint x="960" y="760" as="targetPoint" />
            <mxPoint x="200" y="910.0000000000002" as="sourcePoint" />
            <Array as="points">
              <mxPoint x="520" y="910" />
              <mxPoint x="520" y="760" />
            </Array>
          </mxGeometry>
        </mxCell>
        <mxCell id="F4_hv1toORTMQJguR9tx-137" style="edgeStyle=orthogonalEdgeStyle;rounded=0;orthogonalLoop=1;jettySize=auto;html=1;" edge="1" parent="1">
          <mxGeometry relative="1" as="geometry">
            <mxPoint x="1120" y="860" as="targetPoint" />
            <mxPoint x="200" y="910.0000000000002" as="sourcePoint" />
            <Array as="points">
              <mxPoint x="520" y="910" />
              <mxPoint x="520" y="860" />
            </Array>
          </mxGeometry>
        </mxCell>
        <mxCell id="F4_hv1toORTMQJguR9tx-138" style="edgeStyle=orthogonalEdgeStyle;rounded=0;orthogonalLoop=1;jettySize=auto;html=1;" edge="1" parent="1">
          <mxGeometry relative="1" as="geometry">
            <mxPoint x="1280" y="960" as="targetPoint" />
            <mxPoint x="200" y="910.0000000000002" as="sourcePoint" />
            <Array as="points">
              <mxPoint x="520" y="910" />
              <mxPoint x="520" y="960" />
            </Array>
          </mxGeometry>
        </mxCell>
        <mxCell id="F4_hv1toORTMQJguR9tx-139" style="edgeStyle=orthogonalEdgeStyle;rounded=0;orthogonalLoop=1;jettySize=auto;html=1;" edge="1" parent="1">
          <mxGeometry relative="1" as="geometry">
            <mxPoint x="1440" y="1060" as="targetPoint" />
            <mxPoint x="200" y="910.0000000000002" as="sourcePoint" />
            <Array as="points">
              <mxPoint x="520" y="910" />
              <mxPoint x="520" y="1060" />
            </Array>
          </mxGeometry>
        </mxCell>
        <mxCell id="F4_hv1toORTMQJguR9tx-140" style="edgeStyle=orthogonalEdgeStyle;rounded=0;orthogonalLoop=1;jettySize=auto;html=1;" edge="1" parent="1">
          <mxGeometry relative="1" as="geometry">
            <mxPoint x="1600" y="1160" as="targetPoint" />
            <mxPoint x="200" y="910.0000000000002" as="sourcePoint" />
            <Array as="points">
              <mxPoint x="520" y="910" />
              <mxPoint x="520" y="1160" />
            </Array>
          </mxGeometry>
        </mxCell>
        <mxCell id="F4_hv1toORTMQJguR9tx-141" style="edgeStyle=orthogonalEdgeStyle;rounded=0;orthogonalLoop=1;jettySize=auto;html=1;" edge="1" parent="1">
          <mxGeometry relative="1" as="geometry">
            <mxPoint x="1760" y="1259.9999999999995" as="targetPoint" />
            <mxPoint x="200" y="910.0000000000002" as="sourcePoint" />
            <Array as="points">
              <mxPoint x="520" y="910" />
              <mxPoint x="520" y="1260" />
            </Array>
          </mxGeometry>
        </mxCell>
        <mxCell id="F4_hv1toORTMQJguR9tx-142" value="" style="endArrow=classic;html=1;rounded=0;" edge="1" parent="1">
          <mxGeometry width="50" height="50" relative="1" as="geometry">
            <mxPoint x="80" y="910" as="sourcePoint" />
            <mxPoint x="200" y="910" as="targetPoint" />
          </mxGeometry>
        </mxCell>
        <mxCell id="F4_hv1toORTMQJguR9tx-143" value="&lt;span style=&quot;font-size: 15px;&quot;&gt;in (16 bits)&lt;/span&gt;" style="edgeLabel;html=1;align=center;verticalAlign=middle;resizable=0;points=[];" vertex="1" connectable="0" parent="F4_hv1toORTMQJguR9tx-142">
          <mxGeometry x="-0.007" relative="1" as="geometry">
            <mxPoint as="offset" />
          </mxGeometry>
        </mxCell>
        <mxCell id="F4_hv1toORTMQJguR9tx-144" value="" style="endArrow=classic;html=1;rounded=0;" edge="1" parent="1">
          <mxGeometry width="50" height="50" relative="1" as="geometry">
            <mxPoint x="2400" y="879.5" as="sourcePoint" />
            <mxPoint x="2520" y="879.5" as="targetPoint" />
          </mxGeometry>
        </mxCell>
        <mxCell id="F4_hv1toORTMQJguR9tx-145" value="&lt;span style=&quot;font-size: 15px;&quot;&gt;out (16 bits)&lt;/span&gt;" style="edgeLabel;html=1;align=center;verticalAlign=middle;resizable=0;points=[];" vertex="1" connectable="0" parent="F4_hv1toORTMQJguR9tx-144">
          <mxGeometry x="-0.007" relative="1" as="geometry">
            <mxPoint as="offset" />
          </mxGeometry>
        </mxCell>
        <mxCell id="F4_hv1toORTMQJguR9tx-148" value="RAM8" style="text;html=1;align=center;verticalAlign=middle;whiteSpace=wrap;rounded=0;fontSize=30;" vertex="1" parent="1">
          <mxGeometry x="1170" y="30" width="60" height="30" as="geometry" />
        </mxCell>
        <mxCell id="F4_hv1toORTMQJguR9tx-149" value="" style="endArrow=classic;html=1;rounded=0;" edge="1" parent="1">
          <mxGeometry width="50" height="50" relative="1" as="geometry">
            <mxPoint x="80" y="239.29" as="sourcePoint" />
            <mxPoint x="200" y="239.29" as="targetPoint" />
          </mxGeometry>
        </mxCell>
        <mxCell id="F4_hv1toORTMQJguR9tx-150" value="load" style="edgeLabel;html=1;align=center;verticalAlign=middle;resizable=0;points=[];fontSize=15;" vertex="1" connectable="0" parent="F4_hv1toORTMQJguR9tx-149">
          <mxGeometry x="-0.0236" y="-1" relative="1" as="geometry">
            <mxPoint as="offset" />
          </mxGeometry>
        </mxCell>
      </root>
    </mxGraphModel>
  </diagram>
</mxfile>
